# Blender v2.83.14 OBJ File: 'fleche.blend'
# www.blender.org
mtllib fleche.mtl
o Arrow5
v 5.310826 0.135010 0.443530
v 5.374606 0.066352 0.443530
v 5.374606 0.066352 -0.443530
v 5.310826 0.135011 -0.443530
v -5.374606 1.088954 0.443530
v -5.361123 1.203385 0.443530
v -5.361123 1.203385 -0.443530
v -5.374606 1.088954 -0.443530
v -5.291843 1.290051 0.443530
v -5.291843 1.290051 -0.443530
v -5.163574 1.324735 0.443530
v -5.163574 1.324735 -0.443530
v 1.909218 1.324735 0.443530
v 1.909218 1.324735 -0.443530
v 1.937516 2.083614 0.443530
v 1.937516 2.083614 -0.443529
v 1.918089 1.333605 0.443530
v 1.918089 2.071550 0.443530
v 1.918089 2.071550 -0.443529
v 1.918089 1.333606 -0.443530
v 5.374606 -0.066352 0.443530
v 5.374606 -0.066352 -0.443530
v 5.310826 -0.135011 0.443530
v 5.310826 -0.135010 -0.443530
v -5.374606 -1.088954 -0.443530
v -5.374606 -1.088954 0.443530
v -5.361123 -1.203385 -0.443530
v -5.361123 -1.203385 0.443530
v -5.291843 -1.290051 -0.443530
v -5.291843 -1.290051 0.443530
v -5.163574 -1.324735 -0.443530
v -5.163574 -1.324735 0.443530
v 1.909218 -1.324735 -0.443530
v 1.909218 -1.324735 0.443530
v 1.937516 -2.083614 0.443529
v 1.937516 -2.083614 -0.443530
v 1.918089 -1.333606 0.443530
v 1.918089 -1.333605 -0.443530
v 1.918089 -2.071550 -0.443530
v 1.918089 -2.071550 0.443529
v -5.185130 1.070859 -0.443530
v -5.185130 -1.070858 -0.443530
v -5.185130 -1.070859 0.443530
v -5.185130 1.070858 0.443530
v -5.173066 1.184579 0.443530
v -5.173066 -1.184579 0.443530
v 2.162651 -0.450183 -0.443530
v 2.203545 -0.368041 -0.443530
v -5.173066 1.184579 -0.443530
v 2.203545 0.368041 -0.443530
v 2.203545 0.368041 0.443530
v 2.203545 -0.368041 0.443530
v 2.162651 0.450183 0.443530
v 2.162651 -0.450183 0.443530
v -5.173066 -1.184579 -0.443530
v 2.162651 0.450183 -0.443530
vt 0.393400 0.909900
vt 0.387100 0.990800
vt 0.387100 0.909900
vt 0.247400 0.731400
vt 0.236900 0.812300
vt 0.236900 0.731400
vt 0.255300 0.731400
vt 0.247400 0.812300
vt 0.267000 0.731400
vt 0.255300 0.812300
vt 0.912300 0.731400
vt 0.267000 0.812300
vt 0.079300 0.990800
vt 0.079300 0.909900
vt 0.077500 0.909900
vt 0.010200 0.990800
vt 0.010200 0.909900
vt 0.077500 0.990800
vt 0.405500 0.990800
vt 0.405500 0.909900
vt 0.411700 0.990800
vt 0.411700 0.909900
vt 0.038200 0.731400
vt 0.038200 0.812300
vt 0.027700 0.731400
vt 0.027700 0.812300
vt 0.019800 0.731400
vt 0.019800 0.812300
vt 0.008100 0.731400
vt 0.724600 0.903300
vt 0.079300 0.822300
vt 0.724600 0.822300
vt 0.719500 0.990800
vt 0.719500 0.909900
vt 0.078500 0.903300
vt 0.011200 0.822300
vt 0.078500 0.822300
vt 0.011200 0.903300
vt 0.009400 0.822300
vt 0.969700 0.298600
vt 0.987000 0.101500
vt 0.987000 0.300200
vt 0.023500 0.430000
vt 0.006200 0.627100
vt 0.006200 0.428300
vt 0.007500 0.637500
vt 0.023500 0.625400
vt 0.024600 0.635800
vt 0.007500 0.417900
vt 0.501732 0.987319
vt 0.484930 0.703424
vt 0.507941 0.993216
vt 0.985800 0.310700
vt 0.913100 0.731400
vt 0.912300 0.812300
vt 0.079300 0.903300
vt 0.552022 0.704464
vt 0.520039 0.993403
vt 0.862104 0.017789
vt 0.817924 0.306439
vt 0.849906 0.017600
vt 0.885116 0.307480
vt 0.868214 0.023684
vt 0.892558 0.311296
vt 0.843617 0.023303
vt 0.810368 0.310022
vt 0.477489 0.699609
vt 0.431188 0.028410
vt 0.526429 0.987702
vt 0.559579 0.700881
vt 0.708979 0.682695
vt 1.041221 0.334203
vt 1.040093 0.335986
vt 0.661066 0.328310
vt 0.328724 0.676800
vt 0.329852 0.675017
vt 0.398056 0.675274
vt 0.397244 0.676062
vt 0.662138 0.330126
vt 0.730218 0.331982
vt 0.729430 0.331170
vt 0.971989 0.335730
vt 0.972801 0.334943
vt 0.707907 0.680878
vt 0.639727 0.679021
vt 0.640515 0.679833
vt 0.626664 0.031441
vt 0.743381 0.979564
vt 0.938757 0.982593
vt 0.949173 0.981654
vt 0.694000 0.486600
vt 0.024600 0.419600
vt 0.299300 0.241900
vt 0.968600 0.308900
vt 0.985800 0.091000
vt 0.969700 0.103100
vt 0.968600 0.092800
vt 0.013800 0.645400
vt 0.636946 0.032700
vt 0.646814 0.021952
vt 0.649732 0.033698
vt 0.013800 0.410000
vt 0.025500 0.406800
vt 0.979500 0.083100
vt 0.961985 0.980953
vt 0.732999 0.978303
vt 0.420872 0.029350
vt 0.408061 0.029952
vt 0.393400 0.990800
vt 0.008100 0.812300
vt 0.009400 0.903300
vt 0.913100 0.812300
vt 0.697700 0.494100
vt 0.295600 0.234400
vt 0.025500 0.648600
vt 0.639013 0.015530
vt 0.967800 0.080000
vt 0.720215 0.977205
vn 0.9308 0.3656 0.0000
vn 0.6233 0.7819 0.0000
vn 0.6234 0.7819 0.0000
vn -0.9226 0.3859 0.0000
vn -0.9983 0.0586 0.0000
vn -0.5480 0.8365 0.0000
vn -0.1317 0.9913 0.0000
vn -0.3827 0.9239 0.0000
vn -0.0169 0.9999 0.0000
vn -0.0168 0.9999 -0.0000
vn -1.0000 -0.0000 0.0000
vn -0.5290 0.8486 0.0000
vn 0.9308 -0.3656 -0.0000
vn 0.6234 -0.7819 -0.0000
vn 0.6233 -0.7819 -0.0000
vn -0.9983 -0.0586 -0.0000
vn -0.9226 -0.3859 -0.0000
vn -0.5480 -0.8365 -0.0000
vn -0.1317 -0.9913 -0.0000
vn -0.3827 -0.9239 -0.0000
vn -0.0169 -0.9999 0.0000
vn -0.0168 -0.9999 0.0000
vn -0.5290 -0.8486 0.0000
vn -0.0000 0.0000 -1.0000
vn -0.0000 -0.0000 1.0000
vn -0.7071 0.7071 0.0000
vn -0.7071 -0.7071 -0.0000
usemtl Material.001
s 1
f 2/1/1 4/2/2 1/3/3
f 6/4/4 8/5/5 5/6/5
f 9/7/6 7/8/4 6/4/4
f 11/9/7 10/10/6 9/7/6
f 13/11/8 12/12/7 11/9/7
f 1/3/3 16/13/9 15/14/10
f 18/15/11 20/16/11 17/17/11
f 15/14/10 19/18/12 18/15/12
f 22/19/13 2/1/1 21/20/13
f 24/21/14 21/20/13 23/22/15
f 8/5/5 26/23/16 5/6/5
f 25/24/16 28/25/17 26/23/16
f 27/26/17 30/27/18 28/25/17
f 29/28/18 32/29/19 30/27/18
f 31/30/19 34/31/20 32/32/19
f 36/33/21 23/22/15 35/34/22
f 38/35/11 40/36/11 37/37/11
f 39/38/23 35/39/22 40/36/23
f 41/40/24 25/41/24 8/42/24
f 43/43/25 5/44/25 26/45/25
f 6/46/25 44/47/25 45/48/25
f 28/49/25 43/43/25 26/45/25
f 24/50/24 48/51/24 22/52/24
f 7/53/24 41/40/24 8/42/24
f 17/54/26 14/55/8 13/11/8
f 38/35/27 34/31/20 33/56/20
f 22/52/24 50/57/24 3/58/24
f 2/59/25 52/60/25 21/61/25
f 51/62/25 1/63/25 53/64/25
f 23/65/25 52/60/25 54/66/25
f 47/67/24 42/68/24 48/51/24
f 4/69/24 50/57/24 56/70/24
f 56/70/24 16/71/24 4/69/24
f 53/64/25 15/72/25 18/73/25
f 54/66/25 35/74/25 23/65/25
f 47/67/24 36/75/24 39/76/24
f 33/77/24 39/76/24 38/78/25
f 40/79/25 34/80/25 37/81/24
f 13/82/25 18/73/25 17/83/24
f 19/84/24 14/85/24 20/86/25
f 48/51/24 41/87/24 50/57/24
f 51/62/25 43/88/25 52/60/25
f 44/89/25 53/64/25 45/90/25
f 54/91/25 43/43/25 46/92/25
f 56/93/24 41/40/24 49/94/24
f 27/95/24 42/96/24 55/97/24
f 45/48/25 9/98/25 6/46/25
f 49/99/24 10/100/24 12/101/24
f 46/92/25 30/102/25 32/103/25
f 55/97/24 29/104/24 27/95/24
f 45/90/25 13/82/25 11/105/25
f 46/106/25 34/80/25 54/66/25
f 55/107/24 33/77/24 31/108/24
f 49/99/24 14/85/24 56/70/24
f 2/1/1 3/109/1 4/2/2
f 6/4/4 7/8/4 8/5/5
f 9/7/6 10/10/6 7/8/4
f 11/9/7 12/12/7 10/10/6
f 13/11/8 14/55/8 12/12/7
f 1/3/3 4/2/2 16/13/9
f 18/15/11 19/18/11 20/16/11
f 15/14/10 16/13/9 19/18/12
f 22/19/13 3/109/1 2/1/1
f 24/21/14 22/19/13 21/20/13
f 8/5/5 25/24/16 26/23/16
f 25/24/16 27/26/17 28/25/17
f 27/26/17 29/28/18 30/27/18
f 29/28/18 31/110/19 32/29/19
f 31/30/19 33/56/20 34/31/20
f 36/33/21 24/21/14 23/22/15
f 38/35/11 39/38/11 40/36/11
f 39/38/23 36/111/21 35/39/22
f 41/40/24 42/96/24 25/41/24
f 43/43/25 44/47/25 5/44/25
f 6/46/25 5/44/25 44/47/25
f 28/49/25 46/92/25 43/43/25
f 24/50/24 47/67/24 48/51/24
f 7/53/24 49/94/24 41/40/24
f 17/54/26 20/112/26 14/55/8
f 38/35/27 37/37/27 34/31/20
f 22/52/24 48/51/24 50/57/24
f 2/59/25 51/62/25 52/60/25
f 51/62/25 2/59/25 1/63/25
f 23/65/25 21/61/25 52/60/25
f 47/67/24 55/107/24 42/68/24
f 4/69/24 3/58/24 50/57/24
f 56/70/24 19/84/24 16/71/24
f 53/64/25 1/63/25 15/72/25
f 54/66/25 40/79/25 35/74/25
f 47/67/24 24/50/24 36/75/24
f 33/77/24 47/67/24 39/76/24
f 40/79/25 54/66/25 34/80/25
f 13/82/25 53/64/25 18/73/25
f 19/84/24 56/70/24 14/85/24
f 48/51/24 42/68/24 41/87/24
f 51/62/25 44/89/25 43/88/25
f 44/89/25 51/62/25 53/64/25
f 54/91/25 52/113/25 43/43/25
f 56/93/24 50/114/24 41/40/24
f 27/95/24 25/41/24 42/96/24
f 45/48/25 11/115/25 9/98/25
f 49/99/24 7/116/24 10/100/24
f 46/92/25 28/49/25 30/102/25
f 55/97/24 31/117/24 29/104/24
f 45/90/25 53/64/25 13/82/25
f 46/106/25 32/118/25 34/80/25
f 55/107/24 47/67/24 33/77/24
f 49/99/24 12/101/24 14/85/24
